<svg width="32" height="32" viewBox="0 0 32 32" fill="none" xmlns="http://www.w3.org/2000/svg">
    <circle cx="16" cy="16" r="16" fill="#505060"/>
    <path d="M16 32C24.8366 32 32 24.8366 32 16C32 7.16344 24.8366 0 16 0C7.16344 0 0 7.16344 0 16C0 24.8366 7.16344 32 16 32Z" fill="#F7931A"/>
    <path fill-rule="evenodd" clip-rule="evenodd" d="M23.1863 14.02C23.5003 11.924 21.9033 10.797 19.7213 10.045L20.4293 7.205L18.7013 6.775L18.0113 9.54C17.5667 9.42837 17.1107 9.32441 16.6553 9.22061L16.6263 9.214L17.3213 6.431L15.5933 6L14.8853 8.839L14.8098 8.82173C14.4597 8.74171 14.1153 8.66297 13.7813 8.579L13.7833 8.57L11.3993 7.975L10.9393 9.821C10.9393 9.821 12.2223 10.115 12.1953 10.133C12.8953 10.308 13.0213 10.771 13.0003 11.139L12.1943 14.374C12.2423 14.386 12.3043 14.404 12.3743 14.431L12.1913 14.386L11.0613 18.918C10.9753 19.13 10.7583 19.449 10.2683 19.328C10.2863 19.353 9.0123 19.015 9.0123 19.015L8.1543 20.993L10.4043 21.554C10.646 21.6147 10.8849 21.6771 11.1214 21.7388L11.1215 21.7388C11.294 21.7839 11.4653 21.8285 11.6353 21.872L10.9203 24.744L12.6473 25.174L13.3553 22.334C13.8273 22.461 14.2853 22.579 14.7333 22.691L14.0273 25.519L15.7553 25.949L16.4703 23.083C19.4183 23.641 21.6343 23.416 22.5673 20.75C23.3193 18.604 22.5303 17.365 20.9793 16.558C22.1093 16.298 22.9593 15.555 23.1863 14.02ZM19.2377 19.5581C18.7487 21.5276 15.6662 20.7134 14.2552 20.3407L14.2551 20.3407C14.1281 20.3071 14.0145 20.2771 13.9177 20.2531L14.8677 16.4481C14.9858 16.4776 15.1302 16.5101 15.2938 16.5468L15.2939 16.5468C16.7534 16.8747 19.7403 17.5457 19.2377 19.5581ZM15.1395 14.953C16.3152 15.2669 18.8789 15.9514 19.3252 14.1616C19.7817 12.3309 17.2895 11.7796 16.0722 11.5103C15.935 11.48 15.814 11.4532 15.7152 11.4286L14.8552 14.8786C14.9367 14.8989 15.0323 14.9244 15.1395 14.953Z" fill="white"/>
</svg>
