<svg width="33" height="33" viewBox="0 0 33 33" fill="none" xmlns="http://www.w3.org/2000/svg">
    <path d="M32.5332 16.1303C32.5332 24.9657 25.3703 32.1286 16.5332 32.1286C7.69606 32.1286 0.533203 24.9657 0.533203 16.1303C0.533203 7.29486 7.69623 0.131836 16.5332 0.131836C25.3702 0.131836 32.5332 7.29418 32.5332 16.1303Z" fill="white"/>
    <path d="M16.5335 0.131836C7.69947 0.131836 0.523923 7.305 0.535169 16.1297C0.537385 17.8953 0.818961 19.5937 1.34744 21.1823H6.13449V7.72403L16.5335 18.1216L26.9319 7.72403V21.1825H31.72C32.2492 19.594 32.5294 17.8956 32.5325 16.13C32.5476 7.29605 25.3684 0.133966 16.5335 0.133966V0.131836Z" fill="#F26822"/>
    <path d="M14.1422 20.5117L9.60404 15.9739V24.4425H6.13439L2.86035 24.4431C5.6687 29.05 10.7441 32.1317 16.5337 32.1317C22.3234 32.1317 27.399 29.0493 30.2078 24.4425H23.4624V15.9739L18.9239 20.5117L16.5332 22.9021L14.1424 20.5117H14.1422Z" fill="#4D4D4D"/>
</svg>
